<svg width="24" height="24" viewBox="0 0 24 24" fill="none" xmlns="http://www.w3.org/2000/svg">
<path d="M15.3749 14.125L16.1499 11.325C16.2166 11.125 16.2124 10.925 16.1374 10.725C16.0624 10.525 15.9332 10.3583 15.7499 10.225L13.3749 8.6C13.2416 8.5 13.0957 8.47916 12.9374 8.5375C12.7791 8.59583 12.6749 8.70833 12.6249 8.875L11.8499 11.675C11.7832 11.875 11.7874 12.075 11.8624 12.275C11.9374 12.475 12.0666 12.6417 12.2499 12.775L14.6249 14.4C14.7582 14.5 14.9041 14.5208 15.0624 14.4625C15.2207 14.4042 15.3249 14.2917 15.3749 14.125ZM3.99991 18.825L3.17491 18.425C2.65824 18.2083 2.30824 17.8375 2.12491 17.3125C1.94157 16.7875 1.96657 16.2667 2.19991 15.75L3.99991 11.85V18.825ZM7.99991 21C7.44991 21 6.97907 20.8 6.58741 20.4C6.19574 20 5.99991 19.525 5.99991 18.975V13L8.67491 20.35C8.72491 20.4667 8.76657 20.5792 8.79991 20.6875C8.83324 20.7958 8.89157 20.9 8.97491 21H7.99991ZM13.1499 20.875C12.6332 21.0583 12.1166 21.0333 11.5999 20.8C11.0832 20.5667 10.7332 20.1917 10.5499 19.675L6.12491 7.45C5.94157 6.93333 5.96657 6.42083 6.19991 5.9125C6.43324 5.40416 6.80824 5.05833 7.32491 4.875L14.8499 2.125C15.3666 1.94166 15.8791 1.96666 16.3874 2.2C16.8957 2.43333 17.2416 2.80833 17.4249 3.325L21.8749 15.55C22.0582 16.0667 22.0332 16.5792 21.7999 17.0875C21.5666 17.5958 21.1916 17.9417 20.6749 18.125L13.1499 20.875Z" fill="white"/>
<path d="M6.5875 20.3999C6.97917 20.7999 7.45 20.9999 8 20.9999H8.975C8.89167 20.8999 8.83333 20.7957 8.8 20.6874C8.76667 20.579 8.725 20.4665 8.675 20.3499L6 12.9999V18.9749C6 19.5249 6.19583 19.9999 6.5875 20.3999Z" fill="#FFB700"/>
<path d="M3.17491 18.4249L3.99991 18.8249V11.8499L2.19991 15.7499C1.96657 16.2665 1.94157 16.7874 2.12491 17.3124C2.30824 17.8374 2.65824 18.2082 3.17491 18.4249Z" fill="#FFB700"/>
</svg>
