<svg width="36" height="36" viewBox="0 0 36 36" fill="none" xmlns="http://www.w3.org/2000/svg">
<path d="M24.2998 2.59079C29.3257 2.59079 33.4092 6.67423 33.4092 11.7002V24.2998C33.4092 26.7157 32.4495 29.0329 30.7412 30.7412C29.0329 32.4495 26.7157 33.4091 24.2998 33.4091H11.7002C6.67426 33.4091 2.59082 29.3257 2.59082 24.2998V11.7002C2.59082 9.28428 3.5505 6.96704 5.25879 5.25876C6.96708 3.55047 9.28431 2.59079 11.7002 2.59079H24.2998ZM11.4004 6.40915C10.0767 6.40915 8.80707 6.93509 7.87109 7.87106C6.93512 8.80704 6.40918 10.0767 6.40918 11.4004V24.5996C6.40918 27.3586 8.64133 29.5908 11.4004 29.5908H24.5996C25.9233 29.5908 27.1929 29.0649 28.1289 28.1289C29.0649 27.1929 29.5908 25.9233 29.5908 24.5996V11.4004C29.5908 8.64129 27.3587 6.40915 24.5996 6.40915H11.4004ZM18 10.0908C20.0976 10.0908 22.1095 10.924 23.5928 12.4072C25.076 13.8904 25.9092 15.9023 25.9092 18C25.9092 20.0976 25.076 22.1095 23.5928 23.5927C22.1095 25.076 20.0976 25.9091 18 25.9091C15.9024 25.9091 13.8905 25.076 12.4072 23.5927C10.924 22.1095 10.0908 20.0976 10.0908 18C10.0908 15.9023 10.924 13.8904 12.4072 12.4072C13.8905 10.924 15.9024 10.0908 18 10.0908ZM18 13.9091C16.915 13.9091 15.8746 14.3402 15.1074 15.1074C14.3402 15.8746 13.9092 16.915 13.9092 18C13.9092 19.0849 14.3402 20.1254 15.1074 20.8925C15.8746 21.6597 16.915 22.0908 18 22.0908C19.085 22.0908 20.1254 21.6597 20.8926 20.8925C21.6598 20.1254 22.0908 19.0849 22.0908 18C22.0908 16.915 21.6598 15.8746 20.8926 15.1074C20.1254 14.3402 19.085 13.9091 18 13.9091ZM25.875 7.84079C26.4808 7.84079 27.0619 8.08139 27.4902 8.50974C27.9186 8.93809 28.1592 9.51919 28.1592 10.125C28.1592 10.7307 27.9186 11.3119 27.4902 11.7402C27.0619 12.1686 26.4808 12.4091 25.875 12.4091C25.2692 12.4091 24.6881 12.1686 24.2598 11.7402C23.8314 11.3119 23.5908 10.7307 23.5908 10.125C23.5908 9.51919 23.8314 8.93809 24.2598 8.50974C24.6881 8.08139 25.2692 7.84079 25.875 7.84079Z" fill="white" stroke="black" stroke-width="0.818182"/>
</svg>
