<svg width="36" height="36" viewBox="0 0 36 36" fill="none" xmlns="http://www.w3.org/2000/svg">
<path d="M18 2.59079C26.5104 2.59079 33.4092 9.48954 33.4092 18C33.4092 25.725 27.7242 32.1206 20.3105 33.2363L19.8408 33.3076V22.0908H22.5C22.9882 22.0908 23.4565 21.897 23.8018 21.5517C24.147 21.2065 24.3408 20.7382 24.3408 20.25C24.3408 19.7617 24.147 19.2934 23.8018 18.9482C23.4565 18.603 22.9882 18.4091 22.5 18.4091H19.8408V15C19.8408 14.6926 19.9633 14.398 20.1807 14.1806C20.398 13.9633 20.6926 13.8408 21 13.8408H21.75C22.2382 13.8408 22.7065 13.647 23.0518 13.3017C23.397 12.9565 23.5908 12.4882 23.5908 12C23.5908 11.5117 23.397 11.0434 23.0518 10.6982C22.7065 10.353 22.2382 10.1591 21.75 10.1591H21C19.7161 10.1591 18.485 10.6693 17.5771 11.5771C16.6693 12.485 16.1592 13.7161 16.1592 15V18.4091H13.5C13.0118 18.4091 12.5435 18.603 12.1982 18.9482C11.853 19.2934 11.6592 19.7617 11.6592 20.25C11.6592 20.7382 11.853 21.2065 12.1982 21.5517C12.5435 21.897 13.0118 22.0908 13.5 22.0908H16.1592V33.3076L15.6895 33.2363C8.27569 32.1222 2.59082 25.7249 2.59082 18C2.59082 9.48954 9.48957 2.59079 18 2.59079Z" fill="white" stroke="black" stroke-width="0.818182"/>
</svg>
