<svg width="67" height="45" viewBox="0 0 67 45" fill="none" xmlns="http://www.w3.org/2000/svg">
<g clip-path="url(#clip0_938_2359)">
<path fill-rule="evenodd" clip-rule="evenodd" d="M0.125 3.95833C0.125 2.97482 0.515698 2.03159 1.21115 1.33615C1.90659 0.640699 2.84982 0.25 3.83333 0.25H63.1667C64.1502 0.25 65.0934 0.640699 65.7889 1.33615C66.4843 2.03159 66.875 2.97482 66.875 3.95833C66.875 4.94184 66.4843 5.88507 65.7889 6.58052C65.0934 7.27597 64.1502 7.66667 63.1667 7.66667H3.83333C2.84982 7.66667 1.90659 7.27597 1.21115 6.58052C0.515698 5.88507 0.125 4.94184 0.125 3.95833ZM0.125 22.5C0.125 21.5165 0.515698 20.5733 1.21115 19.8778C1.90659 19.1824 2.84982 18.7917 3.83333 18.7917H63.1667C64.1502 18.7917 65.0934 19.1824 65.7889 19.8778C66.4843 20.5733 66.875 21.5165 66.875 22.5C66.875 23.4835 66.4843 24.4267 65.7889 25.1222C65.0934 25.8176 64.1502 26.2083 63.1667 26.2083H3.83333C2.84982 26.2083 1.90659 25.8176 1.21115 25.1222C0.515698 24.4267 0.125 23.4835 0.125 22.5ZM0.125 41.0417C0.125 40.0582 0.515698 39.1149 1.21115 38.4195C1.90659 37.724 2.84982 37.3333 3.83333 37.3333H63.1667C64.1502 37.3333 65.0934 37.724 65.7889 38.4195C66.4843 39.1149 66.875 40.0582 66.875 41.0417C66.875 42.0252 66.4843 42.9684 65.7889 43.6639C65.0934 44.3593 64.1502 44.75 63.1667 44.75H3.83333C2.84982 44.75 1.90659 44.3593 1.21115 43.6639C0.515698 42.9684 0.125 42.0252 0.125 41.0417Z" fill="white"/>
</g>
<defs>
<clipPath id="clip0_938_2359">
<rect width="67" height="45" fill="white"/>
</clipPath>
</defs>
</svg>
