<svg width="43" height="40" viewBox="0 0 43 40" fill="none" xmlns="http://www.w3.org/2000/svg">
<rect x="0.5" y="0.5" width="42" height="39" rx="7.5" fill="black"/>
<rect x="0.5" y="0.5" width="42" height="39" rx="7.5" fill="black" fill-opacity="0.2"/>
<rect x="0.5" y="0.5" width="42" height="39" rx="7.5" fill="black" fill-opacity="0.2"/>
<rect x="0.5" y="0.5" width="42" height="39" rx="7.5" fill="black" fill-opacity="0.2"/>
<rect x="0.5" y="0.5" width="42" height="39" rx="7.5" stroke="white"/>
<path d="M28.7041 25.4246L25.9202 22.9998C26.5607 21.9964 26.9325 20.8057 26.9325 19.5297C26.932 15.9646 24.0316 13.0637 20.466 13.0637C16.9004 13.0637 14 15.9646 14 19.5297C14 23.0949 16.9009 25.9957 20.466 25.9957C22.1356 25.9957 23.6594 25.3594 24.8082 24.3168L27.5721 26.7243C27.7356 26.8664 27.9369 26.9363 28.1376 26.9363C28.378 26.9363 28.6175 26.8361 28.788 26.6405C29.1006 26.2818 29.0633 25.7372 28.7041 25.4246ZM20.466 24.2721C17.8512 24.2721 15.7236 22.1445 15.7236 19.5297C15.7236 16.9149 17.8512 14.7874 20.466 14.7874C23.0808 14.7874 25.2084 16.9149 25.2084 19.5297C25.2084 22.1445 23.0808 24.2721 20.466 24.2721Z" fill="white"/>
</svg>
