<svg id="SvgjsSvg1001" width="288" height="288" xmlns="http://www.w3.org/2000/svg" version="1.1" xmlns:xlink="http://www.w3.org/1999/xlink" xmlns:svgjs="http://svgjs.com/svgjs"><defs id="SvgjsDefs1002"></defs><g id="SvgjsG1008"><svg xmlns="http://www.w3.org/2000/svg" viewBox="0 0 64 64" width="288" height="288"><path d="M0 0 C1.10794922 -0.00945648 2.21589844 -0.01891296 3.35742188 -0.02865601 C4.54916016 -0.02258331 5.74089844 -0.01651062 6.96875 -0.01025391 C8.19658203 -0.01312408 9.42441406 -0.01599426 10.68945312 -0.01895142 C13.28516094 -0.02099272 15.88088412 -0.01545833 18.4765625 -0.00292969 C22.45347435 0.01312194 26.42936982 -0.00277732 30.40625 -0.02197266 C32.92708558 -0.01999024 35.44792053 -0.01614659 37.96875 -0.01025391 C39.75635742 -0.01936295 39.75635742 -0.01936295 41.58007812 -0.02865601 C43.24200195 -0.01447128 43.24200195 -0.01447128 44.9375 0 C46.39833008 0.00358017 46.39833008 0.00358017 47.88867188 0.00723267 C50.91947291 0.45473325 52.29893826 1.24708948 54.46875 3.38818359 C54.96875 6.38818359 54.96875 6.38818359 54.46875 9.38818359 C51.42300341 12.39361948 49.13507995 12.76607985 44.9375 12.77636719 C43.27557617 12.79055191 43.27557617 12.79055191 41.58007812 12.80502319 C40.38833984 12.7989505 39.19660156 12.79287781 37.96875 12.78662109 C36.74091797 12.78949127 35.51308594 12.79236145 34.24804688 12.7953186 C31.65233906 12.7973599 29.05661588 12.79182552 26.4609375 12.77929688 C22.48402565 12.76324525 18.50813018 12.77914451 14.53125 12.79833984 C12.01041442 12.79635743 9.48957947 12.79251378 6.96875 12.78662109 C5.77701172 12.79269379 4.58527344 12.79876648 3.35742188 12.80502319 C2.24947266 12.79556671 1.14152344 12.78611023 0 12.77636719 C-0.97388672 12.77398041 -1.94777344 12.77159363 -2.95117188 12.76913452 C-5.98197291 12.32163394 -7.36143826 11.5292777 -9.53125 9.38818359 C-10.03125 6.38818359 -10.03125 6.38818359 -9.53125 3.38818359 C-6.48550341 0.38274771 -4.19757995 0.01028734 0 0 Z " transform="translate(9.531 25.612)" fill="#ffffff" class="svgShape color000000-0 selectable"></path><path d="M0 0 C1.15129395 -0.00630432 2.30258789 -0.01260864 3.48876953 -0.019104 C4.73255371 -0.01505554 5.97633789 -0.01100708 7.2578125 -0.00683594 C9.17182861 -0.00970612 9.17182861 -0.00970612 11.12451172 -0.01263428 C13.82468179 -0.01399642 16.52449081 -0.01129984 19.22460938 -0.00195312 C22.6848708 0.00944136 26.14482197 0.00287993 29.60507202 -0.00909805 C32.90599664 -0.01806434 36.20688383 -0.01178587 39.5078125 -0.00683594 C40.75159668 -0.0108844 41.99538086 -0.01493286 43.27685547 -0.019104 C44.42814941 -0.01279968 45.57944336 -0.00649536 46.765625 0 C47.78027832 0.00159119 48.79493164 0.00318237 49.84033203 0.00482178 C52.3828125 0.25878906 52.3828125 0.25878906 55.3828125 2.25878906 C55.6953125 5.75878906 55.6953125 5.75878906 55.3828125 9.25878906 C52.71087348 11.93072808 51.41254495 11.51195034 47.6796875 11.51757812 C46.48504883 11.52388245 45.29041016 11.53018677 44.05957031 11.53668213 C42.76374023 11.53263367 41.46791016 11.52858521 40.1328125 11.52441406 C38.79524668 11.52576085 37.45768133 11.52770149 36.12011719 11.5302124 C33.31570784 11.53316306 30.51142581 11.528868 27.70703125 11.51953125 C24.10876328 11.5081366 20.51079364 11.5146964 16.91253662 11.52667618 C14.15020492 11.53389642 11.38794417 11.53160613 8.62561035 11.52642059 C6.65242317 11.52443381 4.67923324 11.53051748 2.70605469 11.53668213 C1.51141602 11.53037781 0.31677734 11.52407349 -0.9140625 11.51757812 C-1.96948242 11.51598694 -3.02490234 11.51439575 -4.11230469 11.51275635 C-6.6171875 11.25878906 -6.6171875 11.25878906 -8.6171875 9.25878906 C-8.9296875 5.75878906 -8.9296875 5.75878906 -8.6171875 2.25878906 C-5.20917592 -0.01321866 -4.0009532 0.00627432 0 0 Z " transform="translate(8.617 49.741)" fill="#ffffff" class="svgShape color000000-1 selectable"></path><path d="M0 0 C1.19463867 -0.00630432 2.38927734 -0.01260864 3.62011719 -0.019104 C4.91594727 -0.01505554 6.21177734 -0.01100708 7.546875 -0.00683594 C8.88444082 -0.00818272 10.22200617 -0.01012336 11.55957031 -0.01263428 C14.36397966 -0.01558494 17.16826169 -0.01128987 19.97265625 -0.00195312 C23.57092422 0.00944153 27.16889386 0.00288172 30.76715088 -0.00909805 C33.52948258 -0.0163183 36.29174333 -0.014028 39.05407715 -0.00884247 C41.02726433 -0.00685568 43.00045426 -0.01293935 44.97363281 -0.019104 C46.16827148 -0.01279968 47.36291016 -0.00649536 48.59375 0 C50.17687988 0.00238678 50.17687988 0.00238678 51.79199219 0.00482178 C54.296875 0.25878906 54.296875 0.25878906 56.296875 2.25878906 C56.609375 5.75878906 56.609375 5.75878906 56.296875 9.25878906 C52.88886342 11.53079678 51.6806407 11.5113038 47.6796875 11.51757812 C46.52839355 11.52388245 45.37709961 11.53018677 44.19091797 11.53668213 C42.94713379 11.53263367 41.70334961 11.52858521 40.421875 11.52441406 C38.50785889 11.52728424 38.50785889 11.52728424 36.55517578 11.5302124 C33.85500571 11.53157454 31.15519669 11.52887797 28.45507812 11.51953125 C24.9948167 11.50813676 21.53486553 11.51469819 18.07461548 11.52667618 C14.77369086 11.53564246 11.47280367 11.529364 8.171875 11.52441406 C6.30619873 11.53048676 6.30619873 11.53048676 4.40283203 11.53668213 C3.25153809 11.53037781 2.10024414 11.52407349 0.9140625 11.51757812 C-0.10059082 11.51598694 -1.11524414 11.51439575 -2.16064453 11.51275635 C-4.703125 11.25878906 -4.703125 11.25878906 -7.703125 9.25878906 C-8.015625 5.75878906 -8.015625 5.75878906 -7.703125 2.25878906 C-5.03118598 -0.41314995 -3.73285745 0.00562778 0 0 Z " transform="translate(7.703 2.741)" fill="#ffffff" class="svgShape color000000-2 selectable"></path></svg></g></svg>