<svg width="24" height="24" viewBox="0 0 24 24" fill="none" xmlns="http://www.w3.org/2000/svg">
<path d="M2.05005 10.975C2.13338 10.125 2.30838 9.32084 2.57505 8.5625C2.84172 7.80417 3.20838 7.09167 3.67505 6.425C4.25838 7.025 4.74588 7.72084 5.13755 8.5125C5.52922 9.30417 5.78338 10.125 5.90005 10.975H2.05005ZM18.1 10.975C18.2167 10.125 18.4667 9.30834 18.85 8.525C19.2334 7.74167 19.725 7.05 20.325 6.45C20.7917 7.1 21.1584 7.80834 21.425 8.575C21.6917 9.34167 21.8667 10.1417 21.95 10.975H18.1ZM3.67505 17.55C3.20838 16.9 2.84172 16.1958 2.57505 15.4375C2.30838 14.6792 2.13338 13.875 2.05005 13.025H5.90005C5.78338 13.875 5.52922 14.6917 5.13755 15.475C4.74588 16.2583 4.25838 16.95 3.67505 17.55ZM20.325 17.55C19.725 16.95 19.2334 16.2583 18.85 15.475C18.4667 14.6917 18.2167 13.875 18.1 13.025H21.95C21.8667 13.8583 21.6917 14.6583 21.425 15.425C21.1584 16.1917 20.7917 16.9 20.325 17.55ZM7.92505 10.975C7.79172 9.775 7.46672 8.66667 6.95005 7.65C6.43338 6.63334 5.75838 5.71667 4.92505 4.9C5.72505 4.1 6.63755 3.45834 7.66255 2.975C8.68755 2.49167 9.79172 2.18334 10.975 2.05V10.975H7.92505ZM13.025 10.975V2.05C14.2084 2.18334 15.3125 2.49167 16.3375 2.975C17.3625 3.45834 18.275 4.1 19.075 4.9C18.225 5.7 17.5459 6.6125 17.0375 7.6375C16.5292 8.6625 16.2084 9.775 16.075 10.975H13.025ZM10.975 21.95C9.77505 21.8167 8.66672 21.5042 7.65005 21.0125C6.63338 20.5208 5.72505 19.875 4.92505 19.075C5.77505 18.275 6.45422 17.3667 6.96255 16.35C7.47088 15.3333 7.79172 14.225 7.92505 13.025H10.975V21.95ZM13.025 21.95V13.025H16.075C16.2084 14.225 16.5292 15.3375 17.0375 16.3625C17.5459 17.3875 18.225 18.3 19.075 19.1C18.275 19.9 17.3625 20.5417 16.3375 21.025C15.3125 21.5083 14.2084 21.8167 13.025 21.95Z" fill="white"/>
<path d="M6.9498 7.65005C7.46647 8.66672 7.79147 9.77505 7.9248 10.975H10.9748V2.05005C9.79147 2.18338 8.6873 2.49172 7.6623 2.97505C6.6373 3.45838 5.7248 4.10005 4.9248 4.90005C5.75814 5.71672 6.43314 6.63338 6.9498 7.65005Z" fill="#FFB700"/>
<path d="M7.6498 21.0125C8.66647 21.5042 9.77481 21.8167 10.9748 21.95V13.025H7.9248C7.79147 14.225 7.47064 15.3334 6.9623 16.35C6.45397 17.3667 5.7748 18.275 4.9248 19.075C5.7248 19.875 6.63314 20.5209 7.6498 21.0125Z" fill="#FFB700"/>
</svg>
