<svg width="36" height="36" viewBox="0 0 36 36" fill="none" xmlns="http://www.w3.org/2000/svg">
<path d="M29.6733 6.20421C30.0648 6.06955 30.4832 6.02833 30.895 6.08409C31.366 6.14791 31.8118 6.33666 32.1851 6.63097C32.5581 6.92517 32.8452 7.31405 33.0171 7.75694C33.1674 8.14456 33.2248 8.56153 33.1851 8.97374L33.1626 9.1505L29.7603 29.7862C29.3861 32.0432 26.904 33.3506 24.8218 32.2198C23.2911 31.3883 21.012 30.1041 18.9585 28.7618H18.9575C18.4438 28.4257 17.3835 27.7076 16.4956 26.8741C16.0527 26.4584 15.6356 25.9983 15.353 25.5275C15.0745 25.0633 14.8902 24.5272 15.0249 23.9933V23.9923C15.0851 23.7552 15.2394 23.4864 15.4243 23.2169C15.6166 22.9367 15.8711 22.6154 16.1685 22.2667C16.7637 21.5688 17.5528 20.7365 18.4194 19.8605C20.1521 18.109 22.222 16.1534 23.7163 14.7062C23.9294 14.4996 24.066 14.3234 24.147 14.1886C23.9868 14.252 23.7678 14.3722 23.4976 14.5763C20.0452 17.1828 14.4868 21.1593 12.6343 22.2872C11.8114 22.788 11.1581 23.0984 10.5649 23.2569C10.0363 23.3982 9.56992 23.4151 9.09229 23.3556L8.88623 23.3253C7.02216 23.0151 5.2855 22.533 3.85986 21.9415C1.6228 21.0134 1.7555 17.9535 3.85693 17.0685L29.5063 6.26768L29.6733 6.20421Z" fill="white" stroke="black" stroke-width="0.818182"/>
</svg>
